<?xml version="1.0" encoding="UTF-8" standalone="no"?>
<!-- Generator: Adobe Illustrator 18.1.0, SVG Export Plug-In . SVG Version: 6.00 Build 0)  -->

<svg
   xmlns:dc="http://purl.org/dc/elements/1.1/"
   xmlns:cc="http://creativecommons.org/ns#"
   xmlns:rdf="http://www.w3.org/1999/02/22-rdf-syntax-ns#"
   xmlns:svg="http://www.w3.org/2000/svg"
   xmlns="http://www.w3.org/2000/svg"
   xmlns:sodipodi="http://sodipodi.sourceforge.net/DTD/sodipodi-0.dtd"
   xmlns:inkscape="http://www.inkscape.org/namespaces/inkscape"
   version="1.1"
   id="Layer_1"
   x="0px"
   y="0px"
   viewBox="0 0 300 300"
   enable-background="new 0 0 300 300"
   xml:space="preserve"
   sodipodi:docname="divona.svg"
   inkscape:version="0.92.4 5da689c313, 2019-01-14"><metadata
   id="metadata15"><rdf:RDF><cc:Work
       rdf:about=""><dc:format>image/svg+xml</dc:format><dc:type
         rdf:resource="http://purl.org/dc/dcmitype/StillImage" /></cc:Work></rdf:RDF></metadata><defs
   id="defs13" /><sodipodi:namedview
   pagecolor="#ffffff"
   bordercolor="#666666"
   borderopacity="1"
   objecttolerance="10"
   gridtolerance="10"
   guidetolerance="10"
   inkscape:pageopacity="0"
   inkscape:pageshadow="2"
   inkscape:window-width="1916"
   inkscape:window-height="1006"
   id="namedview11"
   showgrid="false"
   inkscape:zoom="0.78666667"
   inkscape:cx="-68.644068"
   inkscape:cy="150"
   inkscape:window-x="1920"
   inkscape:window-y="45"
   inkscape:window-maximized="0"
   inkscape:current-layer="Layer_1" />
<g
   id="g8"
   inkscape:export-xdpi="90"
   inkscape:export-ydpi="90">
	<path
   fill="#727B7C"
   d="M280.3,138.7l-20.9-4.7c-1.5-0.3-2.6-1.5-3-2.9c-2.3-7.9-5.5-15.5-9.4-22.6c-0.7-1.3-0.7-2.9,0.1-4.2   l11.4-18.1c1-1.6,0.8-3.8-0.6-5.1l-27.2-27.2c-1.4-1.4-3.5-1.6-5.1-0.6l-18.1,11.4c-1.3,0.8-2.9,0.8-4.2,0.1   c-1.5-0.8-3.1-1.6-4.6-2.4c9.1,13.6,18.1,28.1,26.1,43.3c1.5,2.9,2.9,5.8,4.1,8.7c8.2,12.9,13.3,27.9,14.4,44   c3.6,56.8-43.2,103.5-100,100c-46.8-3-84.8-40.9-87.7-87.7c-2.2-35.5,15.3-67.1,42.6-85c-2.1-8-0.8-16.7,4.1-23.9c-2,1-4,2-6,3   c-1.3,0.7-2.9,0.7-4.2-0.1L73.9,53.2c-1.6-1-3.8-0.8-5.1,0.6L41.6,80.9c-1.4,1.4-1.6,3.5-0.6,5.1l11.4,18.1   c0.8,1.3,0.8,2.9,0.1,4.2c-3.9,7.1-7.1,14.7-9.4,22.6c-0.4,1.5-1.6,2.6-3,2.9l-20.9,4.7c-1.9,0.4-3.2,2.1-3.2,4l0,38.4   c0,1.9,1.3,3.6,3.2,4l20.9,4.7c1.5,0.3,2.6,1.5,3,2.9c2.3,7.9,5.5,15.5,9.4,22.6c0.7,1.3,0.7,2.9-0.1,4.2L41,237.8   c-1,1.6-0.8,3.8,0.6,5.1l27.2,27.2c1.4,1.4,3.5,1.6,5.1,0.6L92,259.2c1.3-0.8,2.9-0.8,4.2-0.1c7.1,3.9,14.7,7.1,22.6,9.4   c1.5,0.4,2.6,1.6,2.9,3l4.7,20.9c0.4,1.9,2.1,3.2,4,3.2l38.4,0c1.9,0,3.6-1.3,4-3.2l4.7-20.9c0.3-1.5,1.5-2.6,2.9-3   c7.9-2.3,15.5-5.5,22.6-9.4c1.3-0.7,2.9-0.7,4.2,0.1l18.1,11.4c1.6,1,3.8,0.8,5.1-0.6l27.2-27.2c1.4-1.4,1.6-3.5,0.6-5.1   l-11.4-18.1c-0.8-1.3-0.8-2.9-0.1-4.2c3.9-7.1,7.1-14.7,9.4-22.6c0.4-1.5,1.6-2.6,3-2.9l20.9-4.7c1.9-0.4,3.2-2.1,3.2-4l0-38.4   C283.5,140.8,282.2,139.1,280.3,138.7z"
   id="path2" />
	<path
   fill="#FFFFFF"
   d="M146.6,10.2c0.8-1.1,1.8-2.1,4.3-5c1.3,2.1,2.2,3.9,3.3,5.3c24.5,31.2,47.7,63.3,66.3,98.4   c7.1,13.5,11.4,27.3,15,42.2c1.9,7.8,3.9,27.3,0.3,38.1c-1.6,3.8-3.1,7.6-4.9,11.3c-12.3,25.3-31.9,42.1-59.4,49   c-44.6,11.2-87.4-12.8-103.6-52c-6-14.5-9.1-29.7-5.4-45.5c0.9-3.8,3-6.2,6.6-6.5c3.7-0.3,5.1,2.8,5.8,5.8   c1.2,5.6,2.4,11.1,3.3,16.7c1.4,8.6,7,15.5,13.6,16.5c8.5,1.3,15.4-4.2,18.8-13.8c3.1-8.6,0.2-16.1-2.8-23.9   c-2.1-5.6-3.8-11.4-5.4-17.1c-1-3.7,0.8-6.4,3.9-8.4c3.3-2,6.6-2.9,10.2-0.6c7.5,4.9,9.8,12.6,11,20.7c1.5,10.5,2,21.2,4,31.5   c2.4,12.2,8.8,22.3,21.1,26.8c15.4,5.7,28.2,0.4,37.7-14.4c13.1-20.6,8-43.2-11.1-59.9c-12-10.5-26.2-16.4-41.2-20.9   c-9.4-2.9-18.6-6.2-26.4-12.6c-8.5-7.1-10.5-20.1-4-29C120.6,45.4,133.6,27.8,146.6,10.2z"
   id="path4" />
	<path
   d="M107.7,63.1c-6.5,9-4.5,21.9,4,29c7.7,6.5,17,9.8,26.4,12.6c15,4.5,29.2,10.5,41.2,20.9c19.1,16.7,24.2,39.3,11.1,59.9   c-9.4,14.9-22.3,20.1-37.7,14.4c-12.2-4.5-18.7-14.5-21.1-26.8c-2-10.4-2.5-21.1-4-31.5c-1.2-8.1-3.5-15.8-11-20.7   c-3.6-2.4-6.9-1.4-10.2,0.6c-3.1,1.9-4.9,4.7-3.9,8.4c1.6,5.8,3.2,11.6,5.4,17.1c3,7.8,5.8,15.2,2.8,23.9   c-3.4,9.6-10.4,15.2-18.8,13.8c-6.6-1.1-12.2-8-13.6-16.5c-0.9-5.6-2.1-11.2-3.3-16.7c-0.7-3-2.1-6.2-5.8-5.8   c-3.6,0.3-5.7,2.7-6.6,6.5c-3.7,15.9-0.6,31,5.4,45.5c16.3,39.2,59,63.3,103.6,52c27.4-6.9,47-23.7,59.4-49   c1.8-3.7,4.9-11.3,5.6-18.7c1.9-15.9,0.8-22.9-1.1-30.7c-3.6-14.9-7.9-28.8-15-42.2c-18.5-35.1-41.8-67.2-66.3-98.4   c-1.2-1.5-2-3.2-3.3-5.3c-2.4,2.8-3.4,3.8-4.3,5C133.6,27.8,120.6,45.4,107.7,63.1z"
   id="path6" />
</g>
</svg>